<svg xmlns="http://www.w3.org/2000/svg" style="enable-background:new 0 0 595.28 841.89" xml:space="preserve" viewBox="396.38 322.54 17.28 17.17"><switch><g><path d="M405.07 327.77c-1.84 0-3.77 1.02-3.77 3.46 0 2.24 1.83 3.35 3.66 3.35s3.77-1.11 3.77-3.45c.01-2.34-1.72-3.36-3.66-3.36z" style="fill:none"/><path d="M404.87 322.54c-4.65 0-8.49 3.33-8.49 8.69 0 4.95 3.64 8.48 8.69 8.48 4.85 0 8.59-3.33 8.59-8.59 0-5.44-3.94-8.58-8.79-8.58zm.1 12.04c-1.83 0-3.66-1.11-3.66-3.35 0-2.44 1.93-3.46 3.77-3.46 1.94 0 3.66 1.02 3.66 3.36s-1.94 3.45-3.77 3.45z"/></g></switch></svg>